<svg width="70" height="70" viewBox="0 0 70 70" fill="none" xmlns="http://www.w3.org/2000/svg">
<circle cx="35.5" cy="23.5" r="6" stroke="#DF0A0A"/>
<circle cx="35.5" cy="23.5" r="2.5" fill="#DF0A0A"/>
<rect x="10.5" y="28.5" width="50" height="28" rx="2.5" stroke="#DF0A0A" stroke-width="3"/>
<path d="M35 7.5C45.2173 7.5 53.5 15.7827 53.5 26C53.5 26.503 53.3035 26.9107 52.6328 27.3301C51.8813 27.7999 50.659 28.1836 48.9121 28.4551C45.4344 28.9956 40.571 29 35 29C29.429 29 24.5656 28.9956 21.0879 28.4551C19.341 28.1836 18.1187 27.7999 17.3672 27.3301C16.6965 26.9107 16.5 26.503 16.5 26C16.5 15.7827 24.7827 7.5 35 7.5Z" stroke="#DF0A0A" stroke-width="3"/>
<line x1="29" y1="37.5" x2="42" y2="37.5" stroke="#DF0A0A" stroke-width="3"/>
</svg>
