<svg width="70" height="70" viewBox="0 0 70 70" fill="none" xmlns="http://www.w3.org/2000/svg">
<rect x="17.5" y="42.5" width="18" height="15" rx="1.5" stroke="#DF0A0A" stroke-width="3"/>
<line x1="26.45" y1="45.6077" x2="26.45" y2="53.4199" stroke="#DF0A0A" stroke-width="2"/>
<path d="M20.2 39.9116C20.2 30.9834 32.8017 30.4133 32.8 39.9116" stroke="#DF0A0A" stroke-width="3"/>
<circle cx="44.5" cy="50.5" r="2.5" fill="#DF0A0A"/>
<circle cx="44.5" cy="34.5" r="2.5" fill="#DF0A0A"/>
<circle cx="44.5" cy="21.5" r="2.5" fill="#DF0A0A"/>
<circle cx="52.5" cy="50.5" r="2.5" fill="#DF0A0A"/>
<circle cx="52.5" cy="34.5" r="2.5" fill="#DF0A0A"/>
<circle cx="52.5" cy="21.5" r="2.5" fill="#DF0A0A"/>
<rect x="11.5" y="15.5" width="47" height="12" stroke="#DF0A0A" stroke-width="3"/>
<mask id="path-11-inside-1_7_408" fill="white">
<path d="M45 29H60V44H45V29Z"/>
</mask>
<path d="M60 44V47H63V44H60ZM60 29H57V44H60H63V29H60ZM60 44V41H45V44V47H60V44Z" fill="#DF0A0A" mask="url(#path-11-inside-1_7_408)"/>
<mask id="path-13-inside-2_7_408" fill="white">
<path d="M45 44H60V59H45V44Z"/>
</mask>
<path d="M60 59V62H63V59H60ZM60 44H57V59H60H63V44H60ZM60 59V56H45V59V62H60V59Z" fill="#DF0A0A" mask="url(#path-13-inside-2_7_408)"/>
</svg>
