<svg width="71" height="70" viewBox="0 0 71 70" fill="none" xmlns="http://www.w3.org/2000/svg">
<rect x="34.5" y="8.5" width="35" height="55" rx="1.5" stroke="#DE0A0C" stroke-width="3"/>
<ellipse cx="52.76" cy="54.6889" rx="3.04" ry="2.57778" fill="#DF0A0A"/>
<circle cx="26.4" cy="40.6001" r="19.5" stroke="#DE0A0C" stroke-width="3"/>
<path d="M25.9996 21.1001C29.3217 21.1001 31.9058 23.8094 33.5699 27.2134C35.2828 30.7169 36.2994 35.4518 36.2994 40.6001C36.2994 45.7484 35.2828 50.4833 33.5699 53.9868C31.9058 57.3908 29.3217 60.1001 25.9996 60.1001C22.6777 60.1 20.0934 57.3907 18.4293 53.9868C16.7165 50.4833 15.6998 45.7483 15.6998 40.6001C15.6998 35.4518 16.7165 30.7169 18.4293 27.2134C20.0934 23.8095 22.6777 21.1002 25.9996 21.1001Z" stroke="#DE0A0C" stroke-width="3"/>
<line x1="8.39996" y1="33.9" x2="44.4" y2="33.9" stroke="#DE0A0C" stroke-width="3"/>
<line x1="8.39996" y1="47.5" x2="44.4" y2="47.5" stroke="#DE0A0C" stroke-width="3"/>
</svg>
