<svg width="51" height="51" viewBox="0 0 51 51" fill="none" xmlns="http://www.w3.org/2000/svg">
<circle cx="25.5" cy="25.5" r="24" stroke="#DF0A0A" stroke-width="3"/>
<path d="M25 1.5C28.9296 1.5 32.0637 4.71334 34.126 8.93164C36.2368 13.2495 37.5 19.1092 37.5 25.5C37.5 31.8908 36.2368 37.7505 34.126 42.0684C32.0637 46.2867 28.9296 49.5 25 49.5C21.0704 49.5 17.9363 46.2867 15.874 42.0684C13.7632 37.7505 12.5 31.8908 12.5 25.5C12.5 19.1092 13.7632 13.2495 15.874 8.93164C17.9363 4.71334 21.0704 1.5 25 1.5Z" stroke="#DF0A0A" stroke-width="3"/>
<line x1="3" y1="17.5" x2="48" y2="17.5" stroke="#DF0A0A" stroke-width="3"/>
<line x1="3" y1="34.5" x2="48" y2="34.5" stroke="#DF0A0A" stroke-width="3"/>
</svg>
